<svg width="16" height="16" viewBox="0 0 16 16" fill="none" xmlns="http://www.w3.org/2000/svg">
<rect width="16" height="16" rx="6" fill="#E10D34"/>
<g clip-path="url(#clip0_2044_6261)">
<path d="M12.369 4.66163L7.18687 9.84338C7.15203 9.87836 7.11063 9.90611 7.06503 9.92505C7.01944 9.94399 6.97056 9.95374 6.92119 9.95374C6.87182 9.95374 6.82293 9.94399 6.77734 9.92505C6.73175 9.90611 6.69034 9.87836 6.6555 9.84338L4.6515 7.8375C4.61666 7.80252 4.57525 7.77477 4.52966 7.75583C4.48407 7.73689 4.43518 7.72714 4.38581 7.72714C4.33644 7.72714 4.28756 7.73689 4.24196 7.75583C4.19637 7.77477 4.15497 7.80252 4.12012 7.8375C4.08515 7.87234 4.05739 7.91375 4.03845 7.95934C4.01951 8.00494 4.00977 8.05382 4.00977 8.10319C4.00977 8.15256 4.01951 8.20144 4.03845 8.24704C4.05739 8.29263 4.08515 8.33404 4.12012 8.36888L6.12487 10.3733C6.33635 10.5843 6.62295 10.7029 6.92175 10.7029C7.22055 10.7029 7.50714 10.5843 7.71862 10.3733L12.9004 5.19263C12.9353 5.15779 12.963 5.11641 12.9819 5.07085C13.0008 5.02529 13.0105 4.97645 13.0105 4.92713C13.0105 4.8778 13.0008 4.82896 12.9819 4.7834C12.963 4.73784 12.9353 4.69646 12.9004 4.66163C12.8655 4.62665 12.8241 4.59889 12.7785 4.57996C12.7329 4.56102 12.6841 4.55127 12.6347 4.55127C12.5853 4.55127 12.5364 4.56102 12.4908 4.57996C12.4452 4.59889 12.4038 4.62665 12.369 4.66163Z" fill="white"/>
</g>
<defs>
<clipPath id="clip0_2044_6261">
<rect width="9" height="9" fill="white" transform="translate(4 3)"/>
</clipPath>
</defs>
</svg>
