<svg style="display: none">

<svg id='triangle-grey' width="8" height="16" viewBox="0 0 8 16" fill="none" xmlns="http://www.w3.org/2000/svg">
<path d="M0 8L8 16L8 0L0 8Z" fill="#42434B"/>
</svg>

<svg id='triangle-green' width="16" height="8" viewBox="0 0 16 8" fill="none" xmlns="http://www.w3.org/2000/svg">
<path d="M8 0L0 8H16L8 0Z" fill="#59AC99"/>
</svg>

<svg id='triangle-yellow' width="8" height="16" viewBox="0 0 8 16" fill="none" xmlns="http://www.w3.org/2000/svg">
  <path d="M0 8L8 16L8 0L0 8Z" fill="#FCAB20" />
</svg>

<svg id='triangle-yellow-low' width="16" height="8" viewBox="0 0 16 8" fill="none" xmlns="http://www.w3.org/2000/svg">
<path d="M8 8L16 0L0 0L8 8Z" fill="#FCAB20"/>
</svg>


<svg id='help' width="20" height="20" viewBox="0 0 20 20" fill="none" xmlns="http://www.w3.org/2000/svg">
<g clip-path="url(#clip0_2021_9568)">
<path d="M9.99948 0.833252C5.75448 0.833252 0.882812 1.87492 0.882812 9.99992C0.882812 16.4249 3.60865 19.1666 9.99948 19.1666C14.2445 19.1666 19.1161 18.1249 19.1161 9.99992C19.1161 3.57492 16.3903 0.833252 9.99948 0.833252ZM9.99948 18.3333C4.11531 18.3333 1.71615 15.9191 1.71615 9.99992C1.71615 4.08075 4.11531 1.66659 9.99948 1.66659C15.8836 1.66659 18.2828 4.08075 18.2828 9.99992C18.2828 15.9191 15.8828 18.3333 9.99948 18.3333Z" fill="#42434B"/>
<path d="M9.9987 11.4031C10.2287 11.4031 10.4154 11.2165 10.4154 10.9865V6.02897C10.4154 5.79897 10.2287 5.6123 9.9987 5.6123C9.7687 5.6123 9.58203 5.79897 9.58203 6.02897V10.9865C9.58203 11.2165 9.7687 11.4031 9.9987 11.4031Z" fill="#42434B"/>
<path d="M9.99974 14.5918C10.3426 14.5918 10.6206 14.3138 10.6206 13.9709C10.6206 13.6281 10.3426 13.3501 9.99974 13.3501C9.65686 13.3501 9.37891 13.6281 9.37891 13.9709C9.37891 14.3138 9.65686 14.5918 9.99974 14.5918Z" fill="#42434B"/>
</g>
<defs>
<clipPath id="clip0_2021_9568">
<rect width="20" height="20" fill="white"/>
</clipPath>
</defs>
</svg>


<svg id='plan' width="29" height="4" viewBox="0 0 29 4" fill="none" xmlns="http://www.w3.org/2000/svg">
  <path d="M2 2H27" stroke="#EFEFEF" stroke-width="4" stroke-linecap="round" />
</svg>


<svg id='fact' width="29" height="4" viewBox="0 0 29 4" fill="none" xmlns="http://www.w3.org/2000/svg">
<path d="M2 2H27" stroke="#E10D34" stroke-width="4" stroke-linecap="round" stroke-dasharray="6 5"/>
</svg>

<svg id='table-book' width="21" height="20" viewBox="0 0 21 20" fill="none" xmlns="http://www.w3.org/2000/svg">
  <g clip-path="url(#clip0_2001_1697)">
    <path d="M19.6017 1.58273C19.321 1.3475 18.9919 1.17713 18.6379 1.08379C18.2838 0.990444 17.9135 0.976423 17.5533 1.04273L12.4033 1.97856C11.6664 2.11144 10.9958 2.48901 10.5 3.05023C10.0046 2.48809 9.33395 2.10961 8.59667 1.97606L3.44667 1.04023C3.08647 0.974819 2.71631 0.989315 2.36234 1.08269C2.00836 1.17607 1.67921 1.34604 1.39815 1.5806C1.11709 1.81517 0.890969 2.1086 0.735772 2.44015C0.580575 2.77171 0.500089 3.13331 0.5 3.49939L0.5 17.5277L10.5 19.3469L20.5 17.5277V3.49939C20.5 3.13358 20.4196 2.77223 20.2643 2.441C20.1091 2.10976 19.8828 1.81674 19.6017 1.58273ZM9.66667 17.4994L2.16667 16.1377V3.49939C2.16677 3.37738 2.19366 3.25689 2.24545 3.14641C2.29723 3.03594 2.37264 2.93818 2.46635 2.86005C2.56006 2.78192 2.66979 2.72532 2.78777 2.69424C2.90576 2.66317 3.02913 2.65839 3.14917 2.68023L8.29833 3.61606C8.68235 3.68593 9.02967 3.88836 9.27973 4.18807C9.52979 4.48777 9.66673 4.86574 9.66667 5.25606V17.4994ZM18.8333 16.1361L11.3333 17.4994V5.25606C11.3333 4.86574 11.4702 4.48777 11.7203 4.18807C11.9703 3.88836 12.3176 3.68593 12.7017 3.61606L17.8508 2.68023C17.9709 2.65839 18.0942 2.66317 18.2122 2.69424C18.3302 2.72532 18.4399 2.78192 18.5336 2.86005C18.6274 2.93818 18.7028 3.03594 18.7546 3.14641C18.8063 3.25689 18.8332 3.37738 18.8333 3.49939V16.1361Z" fill="#FFCC00" />
  </g>
  <defs>
    <clipPath id="clip0_2001_1697">
      <rect width="20" height="20" fill="white" transform="translate(0.5)" />
    </clipPath>
  </defs>
</svg>

<svg id='sircle-green' width="8" height="8" viewBox="0 0 8 8" fill="none" xmlns="http://www.w3.org/2000/svg">
  <circle cx="4" cy="4" r="4" fill="#59AC99" />
</svg>

<svg id='sircle-red' width="8" height="8" viewBox="0 0 8 8" fill="none" xmlns="http://www.w3.org/2000/svg">
  <circle cx="4" cy="4" r="4" fill="#FF2D55" />
</svg>

<svg id='arrow' width="24" height="24" viewBox="0 0 24 24" fill="none" xmlns="http://www.w3.org/2000/svg">
<path d="M15 11L12 14L9 11" stroke="#42434B" stroke-linecap="round" stroke-linejoin="round"/>
</svg>

<svg id='calendar-black' width="20" height="20" viewBox="0 0 20 20" fill="none" xmlns="http://www.w3.org/2000/svg">
<path d="M17.5 1.66667H15V0H13.3333V1.66667H6.66667V0H5V1.66667H2.5C1.83696 1.66667 1.20107 1.93006 0.732233 2.3989C0.263392 2.86774 0 3.50363 0 4.16667L0 20H20V4.16667C20 3.50363 19.7366 2.86774 19.2678 2.3989C18.7989 1.93006 18.163 1.66667 17.5 1.66667ZM1.66667 4.16667C1.66667 3.94565 1.75446 3.73369 1.91074 3.57741C2.06702 3.42113 2.27899 3.33333 2.5 3.33333H17.5C17.721 3.33333 17.933 3.42113 18.0893 3.57741C18.2455 3.73369 18.3333 3.94565 18.3333 4.16667V6.66667H1.66667V4.16667ZM1.66667 18.3333V8.33333H18.3333V18.3333H1.66667Z" fill="#42434B"/>
<path d="M14.1667 10.8333H12.5V12.4999H14.1667V10.8333Z" fill="#42434B"/>
<path d="M10.8327 10.8333H9.16602V12.4999H10.8327V10.8333Z" fill="#42434B"/>
<path d="M7.50065 10.8333H5.83398V12.4999H7.50065V10.8333Z" fill="#42434B"/>
<path d="M14.1667 14.1667H12.5V15.8334H14.1667V14.1667Z" fill="#42434B"/>
<path d="M10.8327 14.1667H9.16602V15.8334H10.8327V14.1667Z" fill="#42434B"/>
<path d="M7.50065 14.1667H5.83398V15.8334H7.50065V14.1667Z" fill="#42434B"/>
</svg>


<svg id='exit' width="20" height="20" viewBox="0 0 20 20" fill="none" xmlns="http://www.w3.org/2000/svg">
  <g clip-path="url(#clip0_4001_702)">
    <path d="M1.66667 17.5V2.5C1.66667 2.27899 1.75446 2.06702 1.91074 1.91074C2.06702 1.75446 2.27899 1.66667 2.5 1.66667H6.66667V0H2.5C1.83696 0 1.20107 0.263392 0.732233 0.732233C0.263392 1.20107 0 1.83696 0 2.5L0 17.5C0 18.163 0.263392 18.7989 0.732233 19.2678C1.20107 19.7366 1.83696 20 2.5 20H6.66667V18.3333H2.5C2.27899 18.3333 2.06702 18.2455 1.91074 18.0893C1.75446 17.933 1.66667 17.721 1.66667 17.5Z" fill="#42434B" />
    <path d="M19.2685 8.23255L15.4468 4.41089L14.2685 5.58922L17.8218 9.14255L4.16602 9.16672V10.8334L17.8685 10.8092L14.2668 14.4109L15.4452 15.5892L19.2668 11.7676C19.7357 11.299 19.9993 10.6633 19.9996 10.0004C20 9.33749 19.737 8.70159 19.2685 8.23255Z" fill="#42434B" />
  </g>
  <defs>
    <clipPath id="clip0_4001_702">
      <rect width="20" height="20" fill="white" />
    </clipPath>
  </defs>
</svg>

<svg id='ipr' width="20" height="20" viewBox="0 0 20 20" fill="none" xmlns="http://www.w3.org/2000/svg">
<g clip-path="url(#clip0_4001_2011)">
<path d="M14.166 11.6667C14.166 11.8877 14.0782 12.0997 13.9219 12.2559C13.7657 12.4122 13.5537 12.5 13.3327 12.5H6.66602C6.445 12.5 6.23304 12.4122 6.07676 12.2559C5.92048 12.0997 5.83268 11.8877 5.83268 11.6667C5.83268 11.4457 5.92048 11.2337 6.07676 11.0774C6.23304 10.9211 6.445 10.8334 6.66602 10.8334H13.3327C13.5537 10.8334 13.7657 10.9211 13.9219 11.0774C14.0782 11.2337 14.166 11.4457 14.166 11.6667ZM10.8327 14.1667H6.66602C6.445 14.1667 6.23304 14.2545 6.07676 14.4108C5.92048 14.567 5.83268 14.779 5.83268 15C5.83268 15.221 5.92048 15.433 6.07676 15.5893C6.23304 15.7456 6.445 15.8334 6.66602 15.8334H10.8327C11.0537 15.8334 11.2657 15.7456 11.4219 15.5893C11.5782 15.433 11.666 15.221 11.666 15C11.666 14.779 11.5782 14.567 11.4219 14.4108C11.2657 14.2545 11.0537 14.1667 10.8327 14.1667ZM18.3327 8.73752V15.8334C18.3314 16.938 17.8919 17.9971 17.1108 18.7782C16.3297 19.5593 15.2707 19.9987 14.166 20H5.83268C4.72802 19.9987 3.66898 19.5593 2.88787 18.7782C2.10675 17.9971 1.66734 16.938 1.66602 15.8334V4.16669C1.66734 3.06202 2.10675 2.00298 2.88787 1.22187C3.66898 0.440754 4.72802 0.00134242 5.83268 1.92072e-05H9.59518C10.3615 -0.00195323 11.1207 0.148009 11.8287 0.441235C12.5367 0.734461 13.1796 1.16513 13.7202 1.70835L16.6235 4.61335C17.167 5.15355 17.598 5.79623 17.8914 6.50416C18.1848 7.2121 18.3348 7.9712 18.3327 8.73752ZM12.5418 2.88669C12.2796 2.63265 11.9851 2.41412 11.666 2.23669V5.83335C11.666 6.05437 11.7538 6.26633 11.9101 6.42261C12.0664 6.57889 12.2783 6.66669 12.4993 6.66669H16.096C15.9185 6.34768 15.6996 6.05347 15.4452 5.79169L12.5418 2.88669ZM16.666 8.73752C16.666 8.60002 16.6393 8.46835 16.6268 8.33335H12.4993C11.8363 8.33335 11.2004 8.06996 10.7316 7.60112C10.2627 7.13228 9.99935 6.49639 9.99935 5.83335V1.70585C9.86435 1.69335 9.73185 1.66669 9.59518 1.66669H5.83268C5.16964 1.66669 4.53376 1.93008 4.06492 2.39892C3.59607 2.86776 3.33268 3.50364 3.33268 4.16669V15.8334C3.33268 16.4964 3.59607 17.1323 4.06492 17.6011C4.53376 18.07 5.16964 18.3334 5.83268 18.3334H14.166C14.8291 18.3334 15.4649 18.07 15.9338 17.6011C16.4026 17.1323 16.666 16.4964 16.666 15.8334V8.73752Z" fill="white"/>
</g>
<defs>
<clipPath id="clip0_4001_2011">
<rect width="20" height="20" fill="white"/>
</clipPath>
</defs>
</svg>


<svg id='tasks' width="20" height="20" viewBox="0 0 20 20" fill="none" xmlns="http://www.w3.org/2000/svg">
<g clip-path="url(#clip0_4001_2007)">
<path d="M3.33399 18.3333C3.00545 18.3342 2.68 18.2699 2.37647 18.1441C2.07294 18.0184 1.79735 17.8337 1.56565 17.6008L0.278986 16.4558C0.113889 16.3086 0.0140269 16.1019 0.00136818 15.881C-0.0112905 15.6602 0.0642913 15.4434 0.211486 15.2783C0.358682 15.1132 0.565433 15.0133 0.786257 15.0007C1.00708 14.988 1.22389 15.0636 1.38899 15.2108L2.70982 16.3891C2.78543 16.474 2.87762 16.5426 2.98072 16.5905C3.08381 16.6385 3.19563 16.6648 3.30928 16.668C3.42294 16.6711 3.53604 16.6509 3.64161 16.6087C3.74718 16.5665 3.84299 16.5031 3.92315 16.4225L6.92315 13.5633C7.00151 13.4836 7.0951 13.4205 7.19835 13.3777C7.3016 13.3349 7.4124 13.3133 7.52417 13.3142C7.63593 13.3152 7.74636 13.3385 7.8489 13.383C7.95144 13.4275 8.04399 13.4921 8.12103 13.5731C8.19808 13.654 8.25806 13.7497 8.29739 13.8543C8.33672 13.9589 8.35461 14.0704 8.34999 14.182C8.34537 14.2937 8.31833 14.4033 8.27048 14.5043C8.22264 14.6053 8.15496 14.6956 8.07149 14.77L5.08399 17.615C4.8538 17.8438 4.58076 18.025 4.28048 18.1483C3.9802 18.2716 3.65857 18.3344 3.33399 18.3333ZM19.1673 17.5H10.834C10.613 17.5 10.401 17.4122 10.2447 17.2559C10.0885 17.0996 10.0007 16.8876 10.0007 16.6666C10.0007 16.4456 10.0885 16.2337 10.2447 16.0774C10.401 15.9211 10.613 15.8333 10.834 15.8333H19.1673C19.3883 15.8333 19.6003 15.9211 19.7566 16.0774C19.9129 16.2337 20.0007 16.4456 20.0007 16.6666C20.0007 16.8876 19.9129 17.0996 19.7566 17.2559C19.6003 17.4122 19.3883 17.5 19.1673 17.5ZM3.33399 11.6666C3.00545 11.6675 2.68 11.6032 2.37647 11.4775C2.07294 11.3517 1.79735 11.1671 1.56565 10.9341L0.24482 9.6133C0.0930214 9.45613 0.00902603 9.24563 0.0109247 9.02713C0.0128234 8.80863 0.100464 8.59962 0.254971 8.44512C0.409478 8.29061 0.618488 8.20297 0.836985 8.20107C1.05548 8.19917 1.26598 8.28317 1.42315 8.43496L2.74482 9.7558C2.90346 9.90749 3.11449 9.99215 3.33399 9.99215C3.55348 9.99215 3.76451 9.90749 3.92315 9.7558L6.92315 6.89663C7.08317 6.74391 7.2973 6.66101 7.51843 6.66617C7.73957 6.67133 7.9496 6.76412 8.10232 6.92413C8.25504 7.08415 8.33794 7.29827 8.33278 7.51941C8.32763 7.74055 8.23483 7.95058 8.07482 8.1033L5.08399 10.9483C4.8538 11.1771 4.58076 11.3584 4.28048 11.4816C3.9802 11.6049 3.65857 11.6678 3.33399 11.6666ZM19.1673 10.8333H10.834C10.613 10.8333 10.401 10.7455 10.2447 10.5892C10.0885 10.4329 10.0007 10.221 10.0007 9.99996C10.0007 9.77895 10.0885 9.56699 10.2447 9.41071C10.401 9.25443 10.613 9.16663 10.834 9.16663H19.1673C19.3883 9.16663 19.6003 9.25443 19.7566 9.41071C19.9129 9.56699 20.0007 9.77895 20.0007 9.99996C20.0007 10.221 19.9129 10.4329 19.7566 10.5892C19.6003 10.7455 19.3883 10.8333 19.1673 10.8333ZM3.33399 4.99996C3.00545 5.00083 2.68 4.93653 2.37647 4.8108C2.07294 4.68507 1.79735 4.50039 1.56565 4.26746L0.278986 3.12246C0.113889 2.97527 0.0140269 2.76852 0.00136818 2.54769C-0.0112905 2.32687 0.0642913 2.11006 0.211486 1.94496C0.358682 1.77987 0.565433 1.68 0.786257 1.66735C1.00708 1.65469 1.22389 1.73027 1.38899 1.87746L2.70982 3.0558C2.78543 3.14071 2.87762 3.20925 2.98072 3.25721C3.08381 3.30516 3.19563 3.33151 3.30928 3.33463C3.42294 3.33775 3.53604 3.31758 3.64161 3.27536C3.74718 3.23314 3.84299 3.16976 3.92315 3.08913L6.92649 0.229964C7.08798 0.0861895 7.29904 0.0108135 7.51507 0.0197568C7.73111 0.0287001 7.93521 0.121263 8.08427 0.277893C8.23333 0.434524 8.31567 0.642959 8.31391 0.859174C8.31215 1.07539 8.22641 1.28245 8.07482 1.43663L5.08399 4.28163C4.8538 4.51048 4.58076 4.69171 4.28048 4.81497C3.9802 4.93823 3.65857 5.00109 3.33399 4.99996ZM19.1673 4.16663H10.834C10.613 4.16663 10.401 4.07883 10.2447 3.92255C10.0885 3.76627 10.0007 3.55431 10.0007 3.3333C10.0007 3.11228 10.0885 2.90032 10.2447 2.74404C10.401 2.58776 10.613 2.49996 10.834 2.49996H19.1673C19.3883 2.49996 19.6003 2.58776 19.7566 2.74404C19.9129 2.90032 20.0007 3.11228 20.0007 3.3333C20.0007 3.55431 19.9129 3.76627 19.7566 3.92255C19.6003 4.07883 19.3883 4.16663 19.1673 4.16663Z" fill="white"/>
</g>
<defs>
<clipPath id="clip0_4001_2007">
<rect width="20" height="20" fill="white"/>
</clipPath>
</defs>
</svg>


<svg id='book' width="20" height="20" viewBox="0 0 20 20" fill="none" xmlns="http://www.w3.org/2000/svg">
<g clip-path="url(#clip0_4001_2015)">
<path d="M19.1017 1.41668C18.821 1.18146 18.4919 1.01109 18.1379 0.917744C17.7838 0.824398 17.4135 0.810377 17.0533 0.87668L11.9033 1.81251C11.1664 1.94539 10.4958 2.32297 10 2.88418C9.50459 2.32204 8.83395 1.94356 8.09667 1.81001L2.94667 0.87418C2.58647 0.808773 2.21631 0.823269 1.86234 0.916644C1.50836 1.01002 1.17921 1.17999 0.898151 1.41456C0.617088 1.64912 0.390969 1.94255 0.235772 2.27411C0.0805755 2.60567 8.89544e-05 2.96726 0 3.33335L0 17.3617L10 19.1808L20 17.3617V3.33335C20 2.96753 19.9196 2.60619 19.7643 2.27495C19.6091 1.94371 19.3828 1.65069 19.1017 1.41668ZM9.16667 17.3333L1.66667 15.9717V3.33335C1.66677 3.21134 1.69366 3.09084 1.74545 2.98037C1.79723 2.86989 1.87264 2.77213 1.96635 2.694C2.06006 2.61587 2.16979 2.55927 2.28777 2.5282C2.40576 2.49713 2.52913 2.49234 2.64917 2.51418L7.79833 3.45001C8.18235 3.51988 8.52967 3.72232 8.77973 4.02202C9.02979 4.32173 9.16673 4.69969 9.16667 5.09001V17.3333ZM18.3333 15.97L10.8333 17.3333V5.09001C10.8333 4.69969 10.9702 4.32173 11.2203 4.02202C11.4703 3.72232 11.8176 3.51988 12.2017 3.45001L17.3508 2.51418C17.4709 2.49234 17.5942 2.49713 17.7122 2.5282C17.8302 2.55927 17.9399 2.61587 18.0336 2.694C18.1274 2.77213 18.2028 2.86989 18.2546 2.98037C18.3063 3.09084 18.3332 3.21134 18.3333 3.33335V15.97Z" fill="white"/>
</g>
<defs>
<clipPath id="clip0_4001_2015">
<rect width="20" height="20" fill="white"/>
</clipPath>
</defs>
</svg>


<svg id='calendar' width="20" height="20" viewBox="0 0 20 20" fill="none" xmlns="http://www.w3.org/2000/svg">
<path d="M17.5 1.66667H15V0H13.3333V1.66667H6.66667V0H5V1.66667H2.5C1.83696 1.66667 1.20107 1.93006 0.732233 2.3989C0.263392 2.86774 0 3.50363 0 4.16667L0 20H20V4.16667C20 3.50363 19.7366 2.86774 19.2678 2.3989C18.7989 1.93006 18.163 1.66667 17.5 1.66667ZM1.66667 4.16667C1.66667 3.94565 1.75446 3.73369 1.91074 3.57741C2.06702 3.42113 2.27899 3.33333 2.5 3.33333H17.5C17.721 3.33333 17.933 3.42113 18.0893 3.57741C18.2455 3.73369 18.3333 3.94565 18.3333 4.16667V6.66667H1.66667V4.16667ZM1.66667 18.3333V8.33333H18.3333V18.3333H1.66667Z" fill="white"/>
<path d="M14.1667 10.8333H12.5V12.5H14.1667V10.8333Z" fill="white"/>
<path d="M10.8327 10.8333H9.16602V12.4999H10.8327V10.8333Z" fill="white"/>
<path d="M7.50065 10.8333H5.83398V12.4999H7.50065V10.8333Z" fill="white"/>
<path d="M14.1667 14.1667H12.5V15.8333H14.1667V14.1667Z" fill="white"/>
<path d="M10.8327 14.1667H9.16602V15.8334H10.8327V14.1667Z" fill="white"/>
<path d="M7.50065 14.1667H5.83398V15.8334H7.50065V14.1667Z" fill="white"/>
</svg>

<svg id='dashboard' width="20" height="20" viewBox="0 0 20 20" fill="none" xmlns="http://www.w3.org/2000/svg">
<g clip-path="url(#clip0_4001_1989)">
<path d="M5.83333 0H3.33333C2.44928 0 1.60143 0.35119 0.976311 0.976311C0.35119 1.60143 0 2.44928 0 3.33333L0 5.83333C0 6.71739 0.35119 7.56524 0.976311 8.19036C1.60143 8.81548 2.44928 9.16667 3.33333 9.16667H5.83333C6.71739 9.16667 7.56524 8.81548 8.19036 8.19036C8.81548 7.56524 9.16667 6.71739 9.16667 5.83333V3.33333C9.16667 2.44928 8.81548 1.60143 8.19036 0.976311C7.56524 0.35119 6.71739 0 5.83333 0ZM7.5 5.83333C7.5 6.27536 7.32441 6.69928 7.01184 7.01184C6.69928 7.32441 6.27536 7.5 5.83333 7.5H3.33333C2.89131 7.5 2.46738 7.32441 2.15482 7.01184C1.84226 6.69928 1.66667 6.27536 1.66667 5.83333V3.33333C1.66667 2.89131 1.84226 2.46738 2.15482 2.15482C2.46738 1.84226 2.89131 1.66667 3.33333 1.66667H5.83333C6.27536 1.66667 6.69928 1.84226 7.01184 2.15482C7.32441 2.46738 7.5 2.89131 7.5 3.33333V5.83333Z" fill="#42434B"/>
<path d="M16.6673 0H14.1673C13.2833 0 12.4354 0.35119 11.8103 0.976311C11.1852 1.60143 10.834 2.44928 10.834 3.33333V5.83333C10.834 6.71739 11.1852 7.56524 11.8103 8.19036C12.4354 8.81548 13.2833 9.16667 14.1673 9.16667H16.6673C17.5514 9.16667 18.3992 8.81548 19.0243 8.19036C19.6495 7.56524 20.0007 6.71739 20.0007 5.83333V3.33333C20.0007 2.44928 19.6495 1.60143 19.0243 0.976311C18.3992 0.35119 17.5514 0 16.6673 0ZM18.334 5.83333C18.334 6.27536 18.1584 6.69928 17.8458 7.01184C17.5333 7.32441 17.1093 7.5 16.6673 7.5H14.1673C13.7253 7.5 13.3014 7.32441 12.9888 7.01184C12.6762 6.69928 12.5007 6.27536 12.5007 5.83333V3.33333C12.5007 2.89131 12.6762 2.46738 12.9888 2.15482C13.3014 1.84226 13.7253 1.66667 14.1673 1.66667H16.6673C17.1093 1.66667 17.5333 1.84226 17.8458 2.15482C18.1584 2.46738 18.334 2.89131 18.334 3.33333V5.83333Z" fill="#42434B"/>
<path d="M5.83333 10.8333H3.33333C2.44928 10.8333 1.60143 11.1845 0.976311 11.8097C0.35119 12.4348 0 13.2826 0 14.1667L0 16.6667C0 17.5507 0.35119 18.3986 0.976311 19.0237C1.60143 19.6488 2.44928 20 3.33333 20H5.83333C6.71739 20 7.56524 19.6488 8.19036 19.0237C8.81548 18.3986 9.16667 17.5507 9.16667 16.6667V14.1667C9.16667 13.2826 8.81548 12.4348 8.19036 11.8097C7.56524 11.1845 6.71739 10.8333 5.83333 10.8333ZM7.5 16.6667C7.5 17.1087 7.32441 17.5326 7.01184 17.8452C6.69928 18.1577 6.27536 18.3333 5.83333 18.3333H3.33333C2.89131 18.3333 2.46738 18.1577 2.15482 17.8452C1.84226 17.5326 1.66667 17.1087 1.66667 16.6667V14.1667C1.66667 13.7246 1.84226 13.3007 2.15482 12.9882C2.46738 12.6756 2.89131 12.5 3.33333 12.5H5.83333C6.27536 12.5 6.69928 12.6756 7.01184 12.9882C7.32441 13.3007 7.5 13.7246 7.5 14.1667V16.6667Z" fill="#42434B"/>
<path d="M16.6673 10.8333H14.1673C13.2833 10.8333 12.4354 11.1844 11.8103 11.8096C11.1852 12.4347 10.834 13.2825 10.834 14.1666V16.6666C10.834 17.5506 11.1852 18.3985 11.8103 19.0236C12.4354 19.6487 13.2833 19.9999 14.1673 19.9999H16.6673C17.5514 19.9999 18.3992 19.6487 19.0243 19.0236C19.6495 18.3985 20.0007 17.5506 20.0007 16.6666V14.1666C20.0007 13.2825 19.6495 12.4347 19.0243 11.8096C18.3992 11.1844 17.5514 10.8333 16.6673 10.8333ZM18.334 16.6666C18.334 17.1086 18.1584 17.5325 17.8458 17.8451C17.5333 18.1577 17.1093 18.3333 16.6673 18.3333H14.1673C13.7253 18.3333 13.3014 18.1577 12.9888 17.8451C12.6762 17.5325 12.5007 17.1086 12.5007 16.6666V14.1666C12.5007 13.7246 12.6762 13.3006 12.9888 12.9881C13.3014 12.6755 13.7253 12.4999 14.1673 12.4999H16.6673C17.1093 12.4999 17.5333 12.6755 17.8458 12.9881C18.1584 13.3006 18.334 13.7246 18.334 14.1666V16.6666Z" fill="#42434B"/>
</g>
<defs>
<clipPath id="clip0_4001_1989">
<rect width="20" height="20" fill="white"/>
</clipPath>
</defs>
</svg>
